PathFileType	4	(X/Y/Z)	C:/Users/beibeiliu/ov580/test_trc/User2\sequence.29_training_dense_right.trc
DataRate	CameraRate	NumFrames	NumMarkers	Units	OrigDataRate	OrigDataStartFrame	OrigNumFrames
120	120	24	19	mm	120	1	365
Frame#	Time	ThumbCMC			ThumbMCP			ThumbIP			ThumbTip			IndexMCP			IndexPIP			IndexTip			MiddleMCP			MiddlePIP			MiddleTip			RingMCP			RingPIP			RingTip			PinkyMCP			PinkyPIP			PinkyTip			BackHand1			BackHand2			BackHand3	
		X0	Y0	Z0	X1	Y1	Z1	X2	Y2	Z2	X3	Y3	Z3	X4	Y4	Z4	X5	Y5	Z5	X6	Y6	Z6	X7	Y7	Z7	X8	Y8	Z8	X9	Y9	Z9	X10	Y10	Z10	X11	Y11	Z11	X12	Y12	Z12	X13	Y13	Z13	X14	Y14	Z14	X15	Y15	Z15	X16	Y16	Z16	X17	Y17	Z17	X18	Y18	Z18	
0	0	47.7827	-43.5477	107.692	15.9217	-50.2967	95.2566	-9.41804	-59.2622	73.0443	-25.745	-68.2581	57.5436	43.548	-35.2197	22.7573	31.6788	-40.0795	-5.84155	20.9035	-42.8338	-27.2269	73.4508	-35.8779	9.70145	64.6301	-40.5435	-20.6367	62.9426	-48.2523	-52.6313	97.3911	-44.9603	11.7929	97.614	-48.5382	-15.9976	98.3735	-53.1243	-45.5156	120.306	-58.6578	26.0913	129.646	-63.5807	2.17315	138.593	-64.5683	-18.0107	104.519	-34.594	66.1769	111.223	-25.1053	98.9551	74.3867	-23.0612	88.6396	
1	0.00833333	44.994	-43.2026	103.952	20.7897	-51.4223	95.2397	-7.4624	-59.342	71.3126	-27.3143	-68.1302	61.7157	43.8113	-35.3606	23.4629	30.0836	-37.8248	-4.29876	23.7068	-43.9807	-31.2685	70.3776	-35.235	11.8831	63.674	-40.5652	-24.0545	62.5008	-47.955	-54.1693	95.0005	-43.856	10.1398	101.929	-48.7766	-12.7891	96.7837	-52.0476	-44.6499	119.554	-58.97	27.0627	130.203	-63.5041	1.13587	135.052	-65.1137	-22.6901	104.44	-35.2297	66.7092	111.798	-26.5098	98.8731	73.7385	-22.1008	86.0931	
2	0.0166667	46.8223	-44.4382	110.213	21.8305	-53.3616	93.6598	-7.03711	-60.8493	73.5602	-23.4504	-69.5468	60.0626	44.9973	-36.5578	23.8122	31.2381	-39.0109	0.465121	25.8503	-44.8749	-27.3564	70.5505	-36.5389	7.50788	64.5518	-41.508	-22.7532	63.6964	-49.4732	-54.6992	98.8817	-45.2008	11.9585	98.702	-48.7084	-11.9475	98.2225	-53.1251	-42.7919	120.988	-58.2432	26.0244	130.299	-64.9497	3.76822	135.478	-65.2036	-18.5061	106.343	-36.1062	65.9818	115.639	-27.3342	96.0341	77.3536	-23.0905	87.8864	
3	0.025	43.6339	-41.8829	106.478	18.8491	-50.9905	95.9211	-8.25001	-59.5394	71.2695	-27.2328	-69.0737	59.2035	42.5252	-33.2829	25.1094	29.1834	-37.1851	-4.64538	25.3728	-42.7703	-30.1659	74.2365	-34.0699	8.12396	67.6679	-39.7305	-25.3844	65.6064	-48.3201	-54.0675	96.8007	-41.2509	9.79048	99.6156	-45.4776	-16.7547	96.6916	-50.336	-44.1682	119.719	-56.8305	26.4366	127.631	-63.2967	4.97106	137.054	-63.8331	-22.1755	102.869	-31.7998	65.5752	113.539	-27.0971	98.5909	71.9926	-21.3595	84.5038	
4	0.0333333	42.057	-40.4534	104.67	19.4119	-51.1871	93.5897	-8.13513	-59.897	71.7321	-26.1114	-70.3688	56.6116	43.1212	-31.4642	20.4246	29.9885	-34.2741	-2.25485	25.785	-41.5308	-29.8256	70.6459	-31.1231	11.8613	65.8924	-37.6189	-25.2741	63.297	-44.1012	-52.5796	96.4595	-40.7183	14.4736	96.7315	-43.1812	-17.5794	96.945	-46.8045	-46.0944	120.76	-56.596	28.8176	129.176	-60.4812	-0.00555801	136.909	-62.8493	-23.098	104.122	-31.8298	68.4722	116.524	-25.2416	97.6558	78.0969	-21.0694	86.9642	
5	0.0416667	43.5222	-40.6425	103.688	22.3702	-52.0782	92.0296	-3.18765	-61.8022	74.218	-21.7412	-71.4482	58.3556	42.1629	-29.5943	23.3399	34.5883	-33.5308	-5.14617	20.4058	-38.3422	-30.4158	74.5855	-29.6824	11.8323	70.468	-34.2213	-21.6771	64.3804	-40.7046	-50.1913	96.7058	-38.1662	11.6622	101.262	-41.099	-13.9418	95.8867	-44.7953	-41.4272	123.465	-55.293	25.9334	127.418	-58.7289	3.53092	139.407	-59.3557	-23.2852	109.126	-32.9227	65.8005	114.772	-26.1457	96.3522	78.7042	-20.2266	84.0565	
6	0.05	47.0433	-43.4297	105.112	20.6874	-53.7488	95.2428	-6.7364	-64.1725	73.7503	-22.7796	-75.6998	59.9488	43.8205	-29.2295	24.323	29.6442	-32.1558	-2.34969	25.6774	-39.1806	-28.9983	72.0779	-27.6118	12.6016	67.9087	-32.3116	-19.8738	64.0756	-38.8944	-50.8516	101.121	-37.6881	12.4514	102.111	-40.2997	-13.3437	99.0015	-43.2079	-40.79	120.787	-54.3956	28.5415	131.324	-59.2966	1.83871	138.463	-58.2179	-23.7452	107.348	-31.0661	70.2415	114.145	-26.7015	100.256	77.6218	-20.9778	86.8894	
7	0.0583333	46.8805	-42.4104	109.711	20.8969	-54.0465	94.777	-4.58484	-65.534	73.8761	-21.3652	-76.6573	56.3596	41.1066	-24.4398	25.3456	30.8019	-29.9417	-4.28457	20.9105	-36.8321	-30.1519	72.9577	-23.9474	11.1488	66.6113	-27.0457	-21.1194	64.215	-34.3525	-55.1893	100.755	-34.6888	11.5298	101.977	-36.1463	-14.947	95.1181	-36.8138	-40.6851	120.272	-50.7908	28.9001	126.439	-54.3589	3.79346	137.004	-52.4507	-21.4778	105.844	-27.2749	66.1132	115.533	-24.3596	101.915	76.2193	-17.6337	90.9427	
8	0.0666667	49.0395	-41.9626	103.858	22.2045	-54.6929	94.1917	0.0151246	-66.4225	73.0129	-17.2063	-78.4389	55.7353	42.6752	-22.2296	24.0469	29.6248	-25.8405	-2.00618	22.9597	-34.9121	-25.5751	74.11	-19.4921	12.8026	66.7473	-22.4254	-22.9388	62.1954	-27.15	-48.3447	98.1374	-29.0391	16.0018	98.6963	-30.2567	-11.8333	95.9502	-30.8222	-43.896	121.747	-46.9305	26.3003	125.121	-49.6099	-0.23946	135.907	-49.7165	-20.541	111.082	-25.9405	66.7845	119.007	-24.2099	98.1229	80.7781	-17.5424	91.4332	
9	0.075	49.6627	-42.3177	108.718	23.7792	-57.2092	91.8992	1.9073	-68.4643	70.0952	-13.1776	-79.722	49.3778	45.7744	-20.2742	23.7626	30.2139	-25.0685	1.84572	22.1766	-38.4804	-27.0244	71.5256	-15.1936	11.6769	67.0459	-18.1719	-21.9168	61.683	-21.2708	-48.4205	99.9231	-25.8642	16.1353	98.046	-25.1893	-11.5157	94.0609	-25.4329	-41.873	124.505	-44.4743	25.5727	126.581	-44.8097	-0.466688	131.132	-40.7929	-23.4604	107.744	-27.0897	70.3636	120.021	-25.3141	97.1296	84.5688	-16.1932	92.3093	
10	0.0833333	51.6755	-41.0503	103.618	22.2946	-55.4032	87.4024	1.21821	-68.8186	64.1899	-7.43771	-79.5245	40.8317	45.6355	-16.5889	27.5001	29.6296	-24.8541	-2.77411	26.91	-39.8793	-25.5808	74.7375	-12.5186	12.0905	71.0784	-12.7412	-18.6078	64.1072	-16.4932	-49.1192	101.368	-21.2382	12.6451	99.5919	-19.39	-12.2776	94.4028	-18.8889	-41.501	124.683	-41.8969	24.8477	125.895	-39.9179	-1.05374	131.518	-34.6346	-27.4423	109.18	-25.368	71.7382	120.717	-23.4869	101.253	84.0778	-16.9563	92.8606	
11	0.0916667	49.313	-37.3638	105.521	26.6672	-50.7171	83.6497	3.61123	-63.302	53.7121	-4.03664	-74.1631	29.9301	42.7075	-10.7064	23.6056	31.7399	-21.5189	-5.08633	24.3312	-45.2702	-24.551	72.2973	-5.38818	14.8652	68.1609	-4.75577	-20.9651	59.579	-7.51918	-50.1563	99.7748	-14.2873	12.9977	99.3997	-12.5362	-13.0829	91.5691	-10.4733	-44.1685	118.41	-33.8319	20.6921	125.532	-33.4209	-5.12148	131.043	-30.5374	-27.601	109.094	-20.4314	65.0771	118.358	-21.0515	98.5582	78.5862	-10.332	88.9111	
12	0.1	47.7347	-36.7873	103.052	27.4777	-51.2725	79.5051	9.98777	-63.8834	52.6892	4.95965	-73.1385	26.5411	41.8482	-9.28778	20.4606	32.6286	-24.9854	-5.11602	24.5562	-50.1852	-16.3885	71.4507	-1.78786	9.6266	68.7881	-4.18083	-24.1664	61.7621	-6.67915	-51.4145	98.747	-11.2829	11.4696	100.245	-8.98303	-17.0626	90.3796	-4.99589	-43.6436	121.365	-31.8643	20.4966	123.359	-30.0251	-4.77538	127.258	-25.77	-28.8514	108.995	-17.2366	66.3769	118.527	-21.3349	96.9492	81.3257	-8.09871	92.0349	
13	0.108333	51.6112	-34.3596	97.9007	27.4704	-49.5252	76.023	14.3832	-59.9143	46.4787	11.3141	-70.4839	22.1703	46.7605	-8.97101	21.0892	34.4769	-26.9515	-4.76195	27.7014	-61.1776	-10.9633	77.4737	-0.266926	12.1895	69.4046	0.629862	-20.497	61.0009	-2.52082	-54.3288	101.659	-8.50652	9.72053	95.2586	-3.95051	-13.8785	92.8361	-1.92063	-40.9457	122.548	-31.4692	22.6864	125.332	-28.2184	-7.1485	126.18	-22.98	-26.8253	109.697	-16.911	68.5623	119.262	-19.1557	95.2081	81.6606	-5.5355	91.8259	
14	0.116667	51.0557	-34.7275	98.0836	26.0564	-50.2265	77.1493	16.1821	-60.1601	44.7519	17.7525	-68.1788	14.4447	43.281	-10.0759	18.466	34.7354	-33.5015	-3.26668	29.5819	-63.8446	-4.07791	72.66	1.00298	11.7787	69.212	0.707299	-19.6972	58.7196	-2.1831	-52.3572	102.855	-8.52856	11.1114	98.2366	-2.49449	-17.7848	90.6292	0.183667	-45.4886	121.449	-30.6723	21.8485	128.227	-28.2977	-3.657	129.304	-21.0033	-30.419	113.427	-17.6409	65.9337	119.378	-18.5172	97.5045	82.4081	-6.93266	87.7974	
15	0.125	51.309	-36.2304	98.841	30.3958	-52.6708	76.6268	16.8645	-63.517	45.8736	19.9939	-71.6041	18.819	43.8528	-13.0088	20.4342	33.1951	-38.0236	-0.241262	30.8783	-68.9757	-0.0982734	73.3498	-0.728638	10.0344	63.1577	-0.339727	-21.3895	56.1812	-2.96749	-49.0768	98.9694	-7.92065	11.4387	102.256	-5.40217	-13.8507	93.6689	-2.02513	-44.236	123.097	-30.8258	21.1438	127.392	-28.6618	-4.54486	128.856	-21.3547	-28.9783	116.623	-18.2007	66.959	124.582	-19.7815	94.5541	85.3307	-9.73574	91.6223	
16	0.133333	55.5145	-39.0219	99.5641	29.3985	-54.6713	76.8959	19.3923	-64.9143	43.6705	20.3505	-74.145	17.837	43.5167	-15.4839	20.5115	31.8108	-38.8472	1.78261	34.48	-73.5747	0.983371	73.0669	-1.04625	14.3915	63.394	-1.35256	-18.0146	59.2198	-6.37018	-48.9874	99.403	-10.961	15.658	97.6519	-5.863	-16.1106	90.27	-2.31195	-44.5975	123.053	-32.6127	23.3023	124.52	-28.4644	-7.67131	127.057	-21.9041	-31.0254	114.93	-18.6102	68.1598	125.707	-21.424	97.9624	86.8867	-11.6558	92.5739	
17	0.141667	54.0798	-40.7894	100.182	33.9305	-58.0403	75.3497	17.9453	-70.989	48.6362	18.8382	-79.2157	22.6298	47.0858	-18.7479	20.4751	35.9828	-41.9774	1.50808	34.919	-73.6696	2.26549	75.3197	-4.76586	11.3106	64.9228	-4.7	-20.9133	54.6119	-7.27608	-48.5531	98.7619	-11.7049	13.4278	99.2023	-8.70762	-17.8007	88.8665	-5.31021	-41.5472	121.56	-32.6757	19.9231	125.415	-30.3934	-7.66887	131.295	-24.6318	-28.019	117.337	-21.5367	67.4887	127.552	-24.6722	99.6817	85.8217	-13.473	93.9076	
18	0.15	52.4885	-39.9593	105.507	31.1355	-56.5802	77.2856	16.1406	-70.9043	50.3753	16.2091	-79.3901	21.7804	43.3998	-15.8204	25.2933	33.1476	-37.316	3.90836	33.0713	-74.087	1.96126	71.3895	-2.19866	12.1995	65.8253	-3.89512	-16.4626	56.8754	-7.43195	-49.91	102.524	-14.0586	15.2562	97.2316	-8.10907	-12.2491	87.3867	-5.30194	-42.4015	120.402	-34.5198	22.9297	122.478	-29.9612	-7.79979	127.082	-26.5398	-26.8108	112.222	-20.1116	67.0243	122.892	-25.4649	97.8814	88.3077	-11.9629	92.5115	
19	0.158333	51.7205	-38.6635	102.737	32.158	-54.6504	76.9145	18.8146	-68.3071	50.708	16.9234	-77.9018	22.2811	43.9116	-14.621	27.8889	29.5925	-35.7334	4.63949	25.4111	-67.6877	3.44964	74.4878	-4.04735	10.8322	62.9295	-3.79757	-18.496	52.5133	-5.18425	-49.2524	98.6918	-13.3775	10.2597	92.0066	-8.81591	-14.7885	84.0229	-6.99597	-45.2806	116.633	-35.9366	22.2116	119.948	-33.0748	-5.88917	120.312	-23.7982	-30.6516	110.862	-19.8994	64.8193	124.138	-24.4661	94.2394	89.313	-12.6824	93.8847	
20	0.166667	53.559	-37.2136	100.105	30.3351	-52.8639	80.6714	13.0269	-66.5458	49.0051	19.9729	-73.8705	22.6576	45.678	-12.9915	24.3917	26.5549	-31.9003	5.00096	22.7381	-64.5304	3.21399	71.7857	-2.15933	15.6629	63.3992	-1.43541	-15.9442	48.9167	-2.20165	-49.0422	95.5282	-14.1199	9.68861	88.9749	-11.8941	-17.8398	84.5912	-12.9527	-43.7422	118.395	-37.4799	17.957	117.62	-37.5726	-6.75347	118.488	-32.1286	-32.1359	116.618	-22.2258	66.9686	126.559	-24.9221	95.9649	83.4163	-9.80248	90.1344	
21	0.175	51.1618	-34.3895	100.412	31.1865	-51.1505	75.5048	13.0181	-63.9553	46.4592	16.0897	-73.8054	22.7716	43.3518	-9.84353	22.2696	27.3106	-24.9792	3.98066	20.2817	-62.8534	0.938337	73.5582	-1.16961	12.5469	60.4305	0.775504	-18.8118	52.9405	-1.81069	-49.1012	96.505	-17.2584	6.787	89.5846	-17.9294	-16.1242	81.0071	-19.563	-44.6627	114.748	-38.6829	14.4373	109.668	-40.9844	-10.1115	107.464	-39.5392	-34.5171	111.828	-20.5101	68.9834	124.109	-26.1173	96.4194	89.1063	-10.0139	91.943	
22	0.183333	52.6539	-33.0805	100.499	32.2421	-50.1894	78.3566	16.0643	-60.915	43.9231	17.9055	-71.4704	19.5749	45.0977	-4.8038	23.2584	29.3564	-22.6593	1.95483	21.6805	-53.7762	-3.24723	79.2135	-3.33255	14.8685	68.6862	-1.27066	-18.5768	56.939	-3.23301	-51.4613	97.8171	-20.6985	10.3442	87.7104	-20.9985	-17.4975	77.5638	-27.9869	-45.5256	109.575	-39.9038	14.7176	106.699	-47.6394	-10.2126	95.0863	-47.6907	-35.0258	112.192	-19.7347	64.5623	123.17	-27.2781	99.2906	88.2661	-9.24886	89.4069	
23	0.191667	51.8522	-30.443	103.218	31.8352	-47.7572	77.1245	18.793	-59.7766	48.4578	14.9244	-71.0118	20.2346	52.5203	-0.910527	26.1126	30.3735	-13.7463	0.838147	23.6397	-44.2376	-6.6961	79.9619	0.567928	16.5827	72.9239	1.04715	-19.1762	62.8441	-2.59657	-48.8825	96.4397	-21.1913	8.80748	87.8942	-26.3375	-21.8648	67.8978	-36.0816	-45.0137	110.003	-43.0239	14.4208	100.714	-50.0257	-7.1202	85.8532	-63.2118	-30.596	114.37	-21.9454	63.6679	126.153	-25.5358	98.8216	91.1069	-7.50726	93.4967	
